<mxfile host="app.diagrams.net" modified="2023-02-22T16:37:20.952Z" agent="5.0 (Windows NT 10.0; Win64; x64) AppleWebKit/537.36 (KHTML, like Gecko) Chrome/109.0.0.0 Safari/537.36" etag="lXkWFiPVz4tB0V88JuQi" version="20.8.22" type="github">
  <diagram name="PÃ¡gina-1" id="ur_Cc2yNUW0S00QuE0Pk">
    <mxGraphModel dx="1400" dy="775" grid="1" gridSize="10" guides="1" tooltips="1" connect="1" arrows="1" fold="1" page="1" pageScale="1" pageWidth="827" pageHeight="1169" math="0" shadow="0">
      <root>
        <mxCell id="0" />
        <mxCell id="1" parent="0" />
        <mxCell id="TernwdUiVpaL5c0x7Tq7-1" value="" style="rounded=1;whiteSpace=wrap;html=1;fillStyle=auto;fillColor=#dae8fc;strokeColor=#6c8ebf;dashed=1;dashPattern=12 12;" vertex="1" parent="1">
          <mxGeometry x="520" y="150" width="350" height="100" as="geometry" />
        </mxCell>
        <mxCell id="TernwdUiVpaL5c0x7Tq7-2" value="" style="sketch=0;aspect=fixed;html=1;points=[];align=center;image;fontSize=12;image=img/lib/mscae/OpenShift.svg;dashed=1;dashPattern=12 12;fillStyle=auto;gradientColor=default;" vertex="1" parent="1">
          <mxGeometry x="530" y="160" width="32.61" height="30" as="geometry" />
        </mxCell>
        <mxCell id="TernwdUiVpaL5c0x7Tq7-3" value="" style="sketch=0;html=1;dashed=0;whitespace=wrap;fillColor=#2875E2;strokeColor=#ffffff;points=[[0.005,0.63,0],[0.1,0.2,0],[0.9,0.2,0],[0.5,0,0],[0.995,0.63,0],[0.72,0.99,0],[0.5,1,0],[0.28,0.99,0]];verticalLabelPosition=bottom;align=center;verticalAlign=top;shape=mxgraph.kubernetes.icon;prIcon=api;dashPattern=12 12;fillStyle=auto;" vertex="1" parent="1">
          <mxGeometry x="569" y="190" width="50" height="48" as="geometry" />
        </mxCell>
        <mxCell id="TernwdUiVpaL5c0x7Tq7-4" value="" style="sketch=0;html=1;dashed=0;whitespace=wrap;fillColor=#2875E2;strokeColor=#ffffff;points=[[0.005,0.63,0],[0.1,0.2,0],[0.9,0.2,0],[0.5,0,0],[0.995,0.63,0],[0.72,0.99,0],[0.5,1,0],[0.28,0.99,0]];verticalLabelPosition=bottom;align=center;verticalAlign=top;shape=mxgraph.kubernetes.icon;prIcon=api;dashPattern=12 12;fillStyle=auto;" vertex="1" parent="1">
          <mxGeometry x="660" y="190" width="50" height="48" as="geometry" />
        </mxCell>
        <mxCell id="TernwdUiVpaL5c0x7Tq7-5" value="" style="sketch=0;html=1;dashed=0;whitespace=wrap;fillColor=#2875E2;strokeColor=#ffffff;points=[[0.005,0.63,0],[0.1,0.2,0],[0.9,0.2,0],[0.5,0,0],[0.995,0.63,0],[0.72,0.99,0],[0.5,1,0],[0.28,0.99,0]];verticalLabelPosition=bottom;align=center;verticalAlign=top;shape=mxgraph.kubernetes.icon;prIcon=api;dashPattern=12 12;fillStyle=auto;" vertex="1" parent="1">
          <mxGeometry x="730" y="190" width="50" height="48" as="geometry" />
        </mxCell>
        <mxCell id="TernwdUiVpaL5c0x7Tq7-6" value="" style="rounded=1;whiteSpace=wrap;html=1;dashed=1;dashPattern=12 12;fillStyle=hatch;fillColor=#fff2cc;strokeColor=#d6b656;" vertex="1" parent="1">
          <mxGeometry x="30" y="40" width="160" height="400" as="geometry" />
        </mxCell>
        <mxCell id="TernwdUiVpaL5c0x7Tq7-10" style="edgeStyle=orthogonalEdgeStyle;rounded=0;orthogonalLoop=1;jettySize=auto;html=1;exitX=0.5;exitY=1;exitDx=0;exitDy=0;" edge="1" parent="1" source="TernwdUiVpaL5c0x7Tq7-7" target="TernwdUiVpaL5c0x7Tq7-8">
          <mxGeometry relative="1" as="geometry" />
        </mxCell>
        <mxCell id="TernwdUiVpaL5c0x7Tq7-7" value="UI" style="rounded=0;whiteSpace=wrap;html=1;dashed=1;dashPattern=12 12;fillStyle=auto;fillColor=#fff2cc;strokeColor=#d6b656;" vertex="1" parent="1">
          <mxGeometry x="50" y="120" width="120" height="60" as="geometry" />
        </mxCell>
        <mxCell id="TernwdUiVpaL5c0x7Tq7-11" style="edgeStyle=orthogonalEdgeStyle;rounded=0;orthogonalLoop=1;jettySize=auto;html=1;entryX=0.5;entryY=0;entryDx=0;entryDy=0;" edge="1" parent="1" source="TernwdUiVpaL5c0x7Tq7-8" target="TernwdUiVpaL5c0x7Tq7-9">
          <mxGeometry relative="1" as="geometry" />
        </mxCell>
        <mxCell id="TernwdUiVpaL5c0x7Tq7-8" value="Logic" style="rounded=0;whiteSpace=wrap;html=1;dashed=1;dashPattern=12 12;fillStyle=auto;fillColor=#dae8fc;strokeColor=#6c8ebf;" vertex="1" parent="1">
          <mxGeometry x="50" y="210" width="120" height="60" as="geometry" />
        </mxCell>
        <mxCell id="TernwdUiVpaL5c0x7Tq7-13" style="edgeStyle=orthogonalEdgeStyle;rounded=0;orthogonalLoop=1;jettySize=auto;html=1;entryX=0.282;entryY=-0.068;entryDx=0;entryDy=0;entryPerimeter=0;" edge="1" parent="1" source="TernwdUiVpaL5c0x7Tq7-9" target="TernwdUiVpaL5c0x7Tq7-12">
          <mxGeometry relative="1" as="geometry" />
        </mxCell>
        <mxCell id="TernwdUiVpaL5c0x7Tq7-9" value="Acceso" style="rounded=0;whiteSpace=wrap;html=1;dashed=1;dashPattern=12 12;fillStyle=auto;fillColor=#d5e8d4;strokeColor=#82b366;" vertex="1" parent="1">
          <mxGeometry x="50" y="300" width="120" height="60" as="geometry" />
        </mxCell>
        <mxCell id="TernwdUiVpaL5c0x7Tq7-12" value="" style="aspect=fixed;html=1;points=[];align=center;image;fontSize=12;image=img/lib/azure2/databases/SQL_Server_Registries.svg;dashed=1;dashPattern=12 12;fillStyle=auto;gradientColor=none;" vertex="1" parent="1">
          <mxGeometry x="90" y="490" width="68" height="62" as="geometry" />
        </mxCell>
        <mxCell id="TernwdUiVpaL5c0x7Tq7-14" value="" style="shape=image;verticalLabelPosition=bottom;labelBackgroundColor=default;verticalAlign=top;aspect=fixed;imageAspect=0;image=data:image/jpeg,/9j/4AAQSkZJRgABAQAAAQABAAD/2wCEAAoHCBYIFBcVFBYZFhgaGRgaHBUYEhgZHB8cHBgcHh0cHxwcIS4lHh44IRkdJzgoLC8xNzU2HCQ9QDs0Py40NTQBDAwMEA8QHhISHzQrJSwxND80OkA0MTQ9NDE9NDQxNj8xNTE/NDQ0NDExNDQ0Pj0/MTQ9NDE0ND80NDQ0OjQ0Mf/AABEIAMQBAgMBIgACEQEDEQH/xAAcAAEAAwADAQEAAAAAAAAAAAAABQYHAQMECAL/xABJEAACAQIDBQUFBQMGDgMAAAAAAQIDEQQFIQYSMUFRBxNhcYEikaGxwRQyctHwQmKCFTOytOHxCCMkNDVSc4OTosLD0tMWF0P/xAAaAQEAAwEBAQAAAAAAAAAAAAAAAwQFAgEG/8QALBEBAAICAQMCBAUFAAAAAAAAAAECAxEEEiExQYEFE1FhFCJCkbEyccHR8P/aAAwDAQACEQMRAD8A2YAAAAAAAAAAAAAAAAAAAAAAAAAAAAAAAAAAAAAAAAAAAAAAAAAAAAAAAAAAAAAAAAAAAAAAAAAAAAAAAAAAAAAAAAAAAAAAAAAAAABxc4OSOzTNqeWxvN62ukuL/JeLPYiZnUObWrWN2nUJBHJmWZbc16zao7sFye7vP4/kjxUNscXTftVN9dHCC+MUrFuODkmN9lKfiGKJ1ES1oFDo7TuvDf71wSS3lLd0vw1tz5dSCxu31ZtxoSb/AH5xil7rX99vI5/B3+zuOZWfES1kGLR20xrl7VeVukadNL4xu16k/lu2NaLSqy3ov9tRV142tZr4nv4O/ponm0jzEtKBD4LN1UtvNNO1pLhr18PEmCtak1nUrNMlbxurkAHLtwgCAzzaGOW+zFb9TpfRfif0+R1SlrzqsI8mSuOOq06hPXBl2YbR16zs6kl+7B7iXqtX7yIrYudV3c5Px35fmXa/D7z5lnz8Tpv8sS2i4MWw+/iZRjGUryaS9p+/jw5mm5bRWFpxgm2krXb1fVv1uyPNxfl/q37J8PM+ZvtpOg6MNGyu+fyO8qTGpXIncbcgAPQAAAAAAAAAAAABwAefGYlYWLk+XBdXyQiJmdQ8mYiNy8edZpHLYdZPgvq/AyjOMzePm25N66tvi/y6EhtLmssRKWusn8PDw5IrVzZ42CMddz5YfJzzlt9vR2XPRgcLLFysuC1k+SR04TDyxc1CPPi+SXVl3y3LLqNGkuOspP4t/roTZMkUhXrjmfCv4nKe+j7Ke7Frel03uD87rREPjMJ3HDhwfn19TY62Uxp4aVKK/Zbvzclqm/VIzvMcLvrzVvXl+vAgw5oyb/uny47YNRM+YVbcPXgJ7r3HwfDzPy4bujCju6osaQzba3ZFinFOm/OP1X195eMkxffxcW9Y8PL9fQzfCztuzXg/zXzRacrxfcVYyvo3Z+UtPyfoVeTi6qzpNxs/ReN+PErsDhHJkt5HZzjfsNKUlx4RXi+H5+hm+OqOCcm7yk3q+Lb1bLdtVV7ycYLhFbz83w+C+JSs0lvT3f8AVXxev5GtwqRFd/Vg/Ess2tr0jt7o96a/rx/Xifg5k7n7w9F4iUYLi3b82XplSpXUaWHZXB2vVa1fsx+r+nvLxhafeNLkuJB5dTVNKMeEUki0YSj3UdeL1Zk8nJuWzxcfiP3ek5AKLSAAAAAAAAAAAAAAAAcFL2tzPlF6K6X/AFP6FmzPEdxDTi9EZPtNjt+bin4fwrj72XeJi6rdUqHNy6joj3Q+Jrd9Jy93lyOte07LVvRI67knlVHd9t/w/V/T3mrDKtMVjcpnK8N9kjZazla78eSXgaTlGAWCglxk0rv9cik7NYf7VXh0XtPyX9tjRrGZzb6mKR7r/wAOp1ROSfYsUDNMIoOcejdvJO6+BoBUdpYdzWUuUop+q0fwsRcS2r6Tc+nVji30lQcfT7uV+vz5nkJfNKW9GVv2XdeX93yIPeNiJY0RtL5dUvFx6P4P9fEl6VS8V7is4GruTXjp+XxsTVOdk/1+uR5Mbc2iYadl2I+1UoS6pX8+fxPYV3YzE97RlHnGT9z1+dyYzGr3VOT5tWXroYWSmsk1+76PDk6sMWn6KnmFTvpzm+F2/wCFcPgil4ipvtvnJt+jLRn9VYWi/wB5qK+b+CKbKpvamxx+1WHyIm1+/wD0uSbyGhu3m+ekfLm/p6MhKMXVkori3Yt+XUN9whFdEl+vedZbaq9xU3ZY8kw++958Fq/F8iwo6MJQWGiorlxfV82d5iZLdVtt3FTorpyADhKAAAAAAAAAAAAAOADpxNXuot+GnnyERvs8mdRtW9psd3UZzvZQTSfjwv7/AJGS4it30nL3eXIt+3mO3Iwop6yblLyWiXq38CkXNnj06aMbLPXeZd9Cn3skvf5E3h477SWiXyRF4Zd3Hxev5Exhod3HxfLn4L9dS3HaGfn7z9oXrYrC6TqtcWox8lq/mvcWwj8mwf2GjTg+KV3+J6y+LZ7zAzX68k2fRcbH8vFWs+dOSvbXUN6kprjB6+UtH8bFgOjGYdYuEoPhKLXvRzjt02iUmanXSa/VmFd72voVnE0+4m49Hp5cix1k6UpQlpKLcWvFMiM4o70VNcY6Py/v+ZvR/S+bj8t+mfX+Ucp2J6jV7xJrmv18StXJPKsRdOHTVfX9eIiUmWnbf0XbYbF7leUP9eN/WL0+Dl7i1ZzVUEt52jFOTb/XmZnlmN+wYinPgoyTf4XpL/lbJHafPf5RlKMXalF+W9bm/DTRevlTycebZomPGu61Tk1x8fp9d9oQ+f5m8fU6Qj92PnzfiRe8dE6u+2+p+sPB15KK9/RdS3GojUIdT5smcnp8Zvnovq/p7zSNl8v7qPeyWsl7KfKPXzfy8ytbK5R/KErtf4qFk/FrhFfN/wBpoqVjO5eb9Ee6/wAPB+u3s/QAKDRAAAAAAAAAAAAAAAAcEXneJWHheTsknJ+nAlCA2iyepmyUYTUY3u7pu9uC05cX7iTF09cdU6hByOv5c9EblkOf4p4utKUuOmnS+qXuaXoeCkt568Fqy+4js1rVpSl9ogrvhuS/M7sH2aOP85iFx1UKb+bl9DU/E4vr/KhXj5emNx3U/BQ7yV3wXxfQvuyeSSryjXqK0VrGL/afKX4VxXV29ZrK9ksPgLPdc2uG9ZpeSWnvuWLgV8/Mi1ein7vcPAnri+T08R/sOQDPaocHIApO2mSyn/lFJX09uK42XCSXlo/JeJT4TVVWeumq6o2S1yCx2yuGxst5wcJPXehJx1624X9C9x+Z8uOmzM5fA+bPVSdT/ljOYYR4R3WsHwfTwfidGHlJSUo8ufI2SexeHmrOVS3P2o6++J0f/X+E61f+IvpEnnmYt+rmnEy9Ora2y7G4h1fCPz8z84rFPcjG3Hi/L8+Jqf8A8Awq4Oqv40/nES7PsJLi6r/3i/8AE9nm4/uRwrdu0dmQRbm7LVls2U2enmj9m8YX9uvbTT9iF/vPx4L3J3jCbCYPCu+45eEptr1Stf1uWSlSjRSjFKKWiSSSXgkuBBk5nbVPKanE3P5vDwrcyanCEKcnG6glFJ6t2V7tatvj7xDOaVXdSbvKrUopbrvvQ373XKNoXUno96PVHtr0VWSTvpKMlbrFpr5HjpZPTpz7xb107/e0vdtu1uLuk+qhHoUZnfeV6IiI1CTAB49AAAAAAAAAAAAAAAAAAAAMk7Zdra2UToYbDVZUp2dWcoNp2d4wjfppJ28EBrYPn/s822xcMxpUsXXqVIVG6TjUk2oyl9x2fPeUV5SZ9AAAZd2o9odTZ6osLhbKq4qU6sknuKX3VFPTf53aaSa0d9M/wGHz3aGPfUp4ucW3aX2l04v8Kc4pr8KsB9IgyDsyxGZ4XHSw+PliNx0akoxrtzTlGUFeM5XvZSfB21Oe2nPsTk9XDLD16lJShNyUJOKbUo2bA14Hzjl2Lz7MaSr0amKqU3e04z3r2bTtG93qmuB35H2pY7KK27ipOvBS3Z05wjGpGztK0kk97wlfhbTiB9Dg8+DxEcZThUg7xnGM4vrGSTT9zR+6ztGTXR/IDtB8+7E7e4vLq9OrjK1SrhakpUZSnLeUZJQe+ujW8m+qcuLRv6kpK61T5oD9gzbtmzevk+HoSw9WdKUqri3CTTa3G7P1NFi7xT8PoB2AwzYjD5pthTqVIZnVpKE9y0nKV/ZTvo11LbgNjs0w9WnOpms5wjOEpQtP2oqSco/e5pNeoGjApe1WzeOzWv3mFx8sNDcjHu0pNbybvLRrqvcZ7tDSzPJMbhsJLMqk3iJQippySjv1NzVX16gbsDNcNsZmtOcZSzacoqUW1aeqTTa+9zWhpQAAAAAAAAAAAAAAAAH5btqz5nxlR7dZzpdwrV1FavSjDS66exFy87m1dp+dfyJl1aSdp1F3MNbO801Jprg1BSd+qRgex20b2WxH2iNKNWShKMVKTik5WvLRcbJr1YE52s5W8lzOU4ezGooVoNaWlwlbx3ot+qN62ZzVZ7hKGIVv8ZCLkk7pSWk4+klJeh887cbby2xVLfoRpSp71pRnKV1K10011imaD2EZ131GthJPWnLvIJvXdnpJJdFJJ/xgVLtoyipg8xniGn3deMHGVtN6EIwlG/X2E/KRY9ge1KhhKFLC4uLp93GMIVoxcouMVaO9Fe0na2qvfwNYzLLqWa05Uq1ONSD4xkrrwfg/FamR7adkcMLTqYjBTaUIynKhN30Su9yXG9k9He/UDX8DjKeYQVSlONSD1UoyTT9UYz/hAfz2E/BU/pRILsgzurl2Pp0FJ91XcoyhfTeUW4yS5Sukr9G/Anf8ID+ewn4Kn9KIF07IasaeU0d6SVpVr3aX/wCs+pj3ahjqOY5lXnQcZR9iLlGzjKUYJSaa46q1+dj07NdmeL2jw8MTSqUIwm5JKc6il7MnF3UYNcU+ZoOyvZDSy2oquLqKvKLTjSjC1O64OV9Z+Wi63AumxFCWGy7CRmmmqFO6aaavFOzT4PW1iar/AHJeT+R2nVX+5LyfyAxXsz2fhtNlOLw87JuvvQm1fcqKnHdl8bPqm0WXspz+e7PLcV7OIwt4xUuMqcXay67ulnzi424Nnl7A/wDM8R/t/wDtwOztSySpgJ082watWoNd6km96C0UmlxSTcZfuvkogdHb7/muH/2z/oSNTp/dX4V8jGO1fOae0GWYPEUvuzqu6vrGShJSi/FO/nx5mz0/ur8K+QGM9je0WFyXD4iOIrwpSlVUoqcrNrdSv7zTMDtfgcwqRpUsTTnOTtGMZXbdm9PRMzHsd2awueYevLEUI1ZRqqMZSvdLcTto+ppeB2NwOXVI1aOGhCcHeM47107NdejYFhMk7Sf9N5T+Oj/WUa2ZJ2k/6byn8dH+soDWwAAAAAAAAAAAAAAAAABifbVLEZpiKVCjRrThSg5OUKU5Rc5200VnaKWv78kWnsu2Up4LL4SxFCLq1JTnJVKUXKKvuxj7SuvZinb95mhgCubQ7K4fMsNWpQoUoznCSjKNKEWpWvF3Sv8AeSMR7OqWKyHMaFSWHrxhKXd1G8PNLdn7N23HRKW7L+E+kQBh+3eLzPZ7M8RXwqrQo1O6e9Gm50najCDbTTineLV3ZlfzHtCzTPKboLRSTjJUaDUpJqzXNpfhsfSAAxPso2CxGHxEMbioOjGmpOnTmrTlKUXG8ovWMUm3rZt25Hd25ZdWx9bCulSqVEoVLuFOU7XlG191OxswApfZPh54TK6MKkZQkpVbxlFxavVm1dPXgXQACr7fbQVdmsI69Cj30t+MbNScYppvfko62ukuK1kiUyjGyzLCQqzpulOdNSdN3vFtcNdSUAGZdiGCqYHCV1Vpzpt1rpThKLa7uOqUktDSKtNVouMkmmmmmrppqzTXNHaAPnLbfZPFZFUnhaFOpVws6ir092nOe691xcW0naSTs78VGLPomP3V5L5HYAMF7P8AaHE7H0qtOWXYmrvz395U5wt7KVrOD6Ftj2nV5NL+ScUtf3//AFmmgDhO5lnaDgamIzjLJxpznCE6O9ONOUox/wAoT9qSVlprqaoAAAAAAAAAAAAAAAAAAAAAAAAAAAAAAAAAAAAAAAAAAAAAAAAAAAAAAAAAAAAAAAAAAAAAAAAAAAAAAAAAAAAAAAAAAAAAAAAAAAAAAAAAAAAAAAAAAAAAAAAAAAAAAAAAAAAAAAAAAAAAAAAAAAA//9k=;" vertex="1" parent="1">
          <mxGeometry x="70.50999999999999" y="50" width="78.98" height="60" as="geometry" />
        </mxCell>
        <mxCell id="TernwdUiVpaL5c0x7Tq7-16" value="" style="aspect=fixed;perimeter=ellipsePerimeter;html=1;align=center;shadow=0;dashed=0;spacingTop=3;image;image=img/lib/active_directory/home_page.svg;dashPattern=12 12;fillStyle=auto;gradientColor=none;" vertex="1" parent="1">
          <mxGeometry x="60" y="127.5" width="36.11" height="32.5" as="geometry" />
        </mxCell>
        <mxCell id="TernwdUiVpaL5c0x7Tq7-25" value="" style="group;fontSize=5;" vertex="1" connectable="0" parent="1">
          <mxGeometry x="530" y="280" width="131" height="142.5" as="geometry" />
        </mxCell>
        <mxCell id="TernwdUiVpaL5c0x7Tq7-17" value="" style="rounded=1;whiteSpace=wrap;html=1;dashed=1;dashPattern=12 12;fillStyle=hatch;fillColor=#fff2cc;strokeColor=#d6b656;" vertex="1" parent="TernwdUiVpaL5c0x7Tq7-25">
          <mxGeometry y="-10" width="72.27586206896551" height="150" as="geometry" />
        </mxCell>
        <mxCell id="TernwdUiVpaL5c0x7Tq7-21" value="Logic" style="rounded=0;whiteSpace=wrap;html=1;fillStyle=auto;fillColor=#dae8fc;strokeColor=#6c8ebf;fontSize=9;" vertex="1" parent="TernwdUiVpaL5c0x7Tq7-25">
          <mxGeometry x="9.034482758620689" y="40" width="54.206896551724135" height="20.999999999999996" as="geometry" />
        </mxCell>
        <mxCell id="TernwdUiVpaL5c0x7Tq7-22" value="Acceso" style="rounded=0;whiteSpace=wrap;html=1;fillStyle=auto;fillColor=#d5e8d4;strokeColor=#82b366;fontSize=9;" vertex="1" parent="TernwdUiVpaL5c0x7Tq7-25">
          <mxGeometry x="9.034482758620689" y="90.99999999999999" width="54.206896551724135" height="20.999999999999996" as="geometry" />
        </mxCell>
        <mxCell id="TernwdUiVpaL5c0x7Tq7-20" style="edgeStyle=orthogonalEdgeStyle;rounded=0;orthogonalLoop=1;jettySize=auto;html=1;entryX=0.5;entryY=0;entryDx=0;entryDy=0;" edge="1" parent="TernwdUiVpaL5c0x7Tq7-25" source="TernwdUiVpaL5c0x7Tq7-21" target="TernwdUiVpaL5c0x7Tq7-22">
          <mxGeometry relative="1" as="geometry" />
        </mxCell>
        <mxCell id="TernwdUiVpaL5c0x7Tq7-26" value="" style="shape=image;verticalLabelPosition=bottom;labelBackgroundColor=default;verticalAlign=top;aspect=fixed;imageAspect=0;image=data:image/png,iVBORw0KGgoAAAANSUhEUgAAAOEAAADhCAMAAAAJbSJIAAAAllBMVEVsQpxcLZH///9iNZVrQJvy8vL9/P5hL5ZVHY7h2upYJo+EZqrk3uyGaqtjM5dODom5rM1oPJr18/hxS574+fZMBYhfK5XPxN1hMJbs5/JXIo9RFotnOZnAs9FaKZDXzuN8WaaOc7GYf7ieiLuzocrw7PV4U6SCYaqsmcSmksC6qs/TyeCagrnVzt/o5evAstKPdrHHu9euso2EAAAQj0lEQVR4nNWdaWOrKhCGqZKY1cQsxqjZ97XN//9zBxdcQdBgwnk/9J7bJK1PgWFmGAAotWs0X72u5932dBwDQ/1RDTA+nv525+trNR/V/+tBnT/8sLru1mpr6jgt2+4slz9Yy2XHtluOM22p6911dajzIeoiPMwua2c6aCGwnyIh1NZg6qwvs7ow6yA8LP4Mx7E7hWhpdWxnoG5fdVCKJmzeLmDq2MUNR2lO25mC+60p+ImEEjZfG2dQiS5B2drMhEIKJJz1HadMz6Sp40GKeyxRhO17SwgehrQvc0FPJoZwAaa2MLxA9vS4EPJsAggPZ8d5Z+zR1HGcswDj+jZh789p1YAXqOVse18m7PWFd8+07Gn/Tca3CHv9gTjrQlNn8B7jG4Tz/rR+Pp9x2n/DsFYmbF4G9fbPpOzBpbIXUJXw167PvpDUsn8/StgGzkf5PDmg/TnC3bSO+Y+l5XT3IcLb8rMdNFZrefsE4fYrDRhoOd3WTthWP2dBSbLVsqOxJOH5iw0YaDk910g4Gn/ehOblHEtl6MoQrkqlXupTx17VQ3iefhst0nRfA2GzK0MPxRp0ub04XsIR+K4NzcoGvIORk7AnyRCM1bE5Yyo+wtvg25NEXssBn4PDRTiUx8YkNR2KIrzKCYgQr2II97IC8s0abMK9pn4bhC4OF45JuDcB+K8RWYRXBCg3IqujMgh/fUC5ERkJnGLCVwgoN+KrOuHKhOB/QCwMNYoI5xZISGJEpyhhXEA4ghD8H4jLZYEbXkC4NgD4TxA74yqEGxdkJS+i3S1PeLVygDIjDqjTIo1wZRIAZUakGlQK4ciFREKJEVsUa0MhzFkZ+RFp1oZMeNZpgBIjOhd+wjZ5EMqOSB6KJMImoAxCyRGXP6QUI4lwm58J/w9E+4+P8FbYR6VGnBLq4QiERnEflRlx2eEhvLD6qMyIdn4hPEdYbEelRxzkFlBzhEfqXP9fIC4hi/C3YK7/LxCdbNomQ9jkMTNyI9rNQkI+MyM1YutSRHjQSjShrIiDQwHhltfMyIxob+iEPc6ZQnLEaY9KuCnbhHIidro0wp5WHlBKxNS0nySs0oRSIqYaMUHIHoUwkuSIyZGYILyzmhAabiQmot3ylatR6bSKZac/z6X8L9mQCEc6ay602kozUDZIziO2Xv57lcMg8/0h/hkUjYKqD2fGeF9Cyii3Dj+YEwj3THdGiwfwyGB0VCeMRbO/vMWqn2gGhTtOmVrZPKEdOzYxocV0ZxKEyixjd7OIXyb8GeQJX+ygIkmo9DOjNoP4bcI4xIgI6TlgMuEhO2zTiN8mXEb5YUzI47ClCJVhdukmhfhtwp8pflhMyBM2pQmVU9H6IpOwR1E7sKWt39wr2DzO858hFIZGGRtMSFuJKSCc55o9gcgkNKYDsvAbs9+fnsJPrnOfJFa+ttKEM9JqIY0QB9H7nHGKEZmE47LVjp1++MkuXyEofoKQ8I/HJcWEUb3cONfwavbnf48Qvz8gbDL9mRQhziwTMo8Y8fuEP84oQTjjyrBhwtcRN+KOutYvA+ErQciXvcCEKwdXITVhvu1VWQhD99snbKpcCShM2LZ0bGxIqziqJIQ/rWZEuOKxpDFhT3O3uJ8SalJ8RBkIg0Jwn5AzSxoTAhO7HCPSR1U5CIMAwyc88mVJI0ILRfu4ERfkuhsZCJcAEx44k4iJNgRutIzVJVkpVQbCn+khJOQInHKEwMQu3JwYWNovCQhbi5CQN9OdIoRReJJ33pB0GdrQX9f3CPPOFwchUKMactIwloJwqQaEB765IksITJyyI8WWUhD6izSA12XLE8I1bsSLKimhZ+8Q4Zl3zTBDCPQoyMiXGMlB6M2IiPDEu2aYJQQmXqnL12rKQdhZ+4Tcq6I5QiNaH8iVUclB6CUVASEZwU0ILHyUUzZDLAvhdI4Ib9zVF3lCqOGy1VcmQxwRZnIoESFwiEsQdO5KhM4NEV65ixPyhMCIlkAyzltEmNn5FhGOiGpuqI9fibC1R4T8a/cEQqDhjMYh7bxFhGY6j8rKlwomRF4N4El2FxBCAwfD11RvTxCmED9MuBwjQka5LIMQuHf8cCnnLUmYRPww4Y+ugBF/mReREJi49jiVeUsRJhA/TeiMwJy/PIFMCKPFnaTzliaMET9NOJiD1bttCNRoNTLR4TOEEWJEOCfq0BfdhjfwynvNJQnjICPhvGUJMSJr3YL+9BUJX2DIX6tHIzSiDHHsvOUIQ8QP+zQ/rSvgjizohEDH26rizUR5wgDx04T2GVz4y4SohMDEa3svHE0TCH3EjxPuALOKhofQwGt7kfNGIvQQP03Y+QN9/opSOiGwcGEAXt4nEiLETxMuT4A7/i0kjIOM0HkjEwL144RHsBZCmAgyAueNQgg6Hyb8GYMjN2AhYRxkBK/SCNVPEwLAmyxlEQIXBxlntYBQ//0wYamKUgZhFGR4fzRpCPldNiZhHGR4zpt+k4TwRyBhHGTcXZnaUNg4TAQZTRfqL0kIDWG21FO04jbT1F9JCKGo+dBXHGT0taskhGOhhIkgw94zCI9lD/Gr7NN0RRLGQcb+ziBc658hPNFji3wxEAdhHGRsWYSw5CaGyrEFJT50dQNameCYgzAOMuZMwpL7NCrHh+QY39wd0ENe0o/HQwjN9AEcBYQIsYy1qRzjE5ctcEuki2V4CIHR5yM8uoZhaDZBFIDKeRpSrs3Y4gdMFR9yEQLtxUXY9BdiSIszv+QD0Svn2kj5Uisqd07li/kIgT7iIaTrRT7Ot3K+lJTzNuPNwsluykkYl/VJQDiYE9ctEoQV2jAu65OA0BkR157iXtqrQghh/Bf6NqFOXj+Mky6p5VNewkRZ37cJ/fVD0how9i/TR5rhpmUvV0VBRj5Pw76mSiRhZ0Nbx7f+2qNRe5uuB4PjUExXFhpjynshGBME1Vgu1dVxg9f5+cJ1fHIthmGpqpVtXeIeWTIieT9t6pWk9GUs6uOyXifIr8Wg1dPwgIhTTXuJ/Xoa/pqoWlUP4qBcXVu9qgMxrGsrsYJYq2pADGsTuetL65Z4RG9zj1cjXOmwiDokHDGsES5RM1S3BCMudSUgLLEMXLfEIka1+rz7LT4hoYjRfgvePTMfkUjE6Twk5N5w8RGJQ1waCiYkbAV9RxC8ZbuEIQYb1svsP+SR4Vqew25YllrZfolCdOL9h5x7SDn4tNP18WwgPdvDfmUDJggxsYe0/ClmREHt3p5MGqEmk2flriEEsROc1xoQ3kR0UwM+Jj5ZwDdpPKs7SyIQwy2Q4X58Ad3UWD8R2+RxWUNNB6fdrNF4wx0UgBh0Unymwvvd1Dh6LdfrakF5IrI4ZQo7a0AMO2mpczGKBA1kYCY3LfGXgu/NQe8iZs7FUN6dEbXbpDGZmSJdhzcRbSVNWO5Yz5yMDRqDT/r0AF1L0zRLT26PCvJU0FBVN36bblk6LsN9CzF3Pg3//i6i9B7qo7kjeaIHt7rXR+/5bL/+9Og98HQ6HSHU78PfMwzftj7PHo/Zfh3uv3kHMTqULqryeStbY/RRE1KnHP30CKfJyaS3wQ1tognlpY176D8T3zE2wM2bY7yJ5gWNNxGXUVlImbO+6NJfaBTS/kbWJZgm/cdvTPCtBCb698JAMwz6vufHuqdGgOd9fY7fbEXCWV8K1xE1FGnIkD4p/Vy/BNPkaX26tL1/hn6+RzicTSaPxaKBeIy1P9tcNv1LD1G3ww5RFdFR8oTsM/eogi56ckpCC568lrubLrIrruk3Z9A+iLAxmzxPpu6NTeiP5LPpGoZrej0Cm75qiMQz99jnJtIJ1+iRhuQ6R7ONnjwafNoZvXOhY8JGY+2BeH10j144h5vEzV6iS1RCJJ6b+Ea6Bva9xyP2Ac8GTeINplBDD9/ww0ePcIJLIaCL+vkDQxlb9KGolKkCok08+/KNCcOgE/o2KLFvz92h//d9RJ8Qh8rGH/p2dBwXNNBL8agpj0g5v7TqGbTFhKjNHskdmRB3aI8w7oq/aIDaqh6q9UQNH4/rsoi0M2grniMMwnFIXIeE0OuKyRFqoof3jZJnSyPrpD8Q7nCBNUR9NrnqVxKReo5w5UaEYJJ42rQamda12gnChR5/N5wyJ3jifCR/XilE+lnQVc7zDmTS58NGbPhLECKlCEshFpznzXf0HkH6rUHzafjbsHfqJ5X5cfyIRWeylz5XH8u4T7zgMP+CbxUXydbwxiG2NPEr/ji0jaSyT8KNWHiufrAbpLz86WxCOjHKa5x20paOE7NFgnAxiacOijgRi+9GKHe/RULuxY8P8x92r5NUWOUipyZw21KE/hzPSkzzITLut1B+K6YzPFszebjJVvQjIM/Mxs4KespopksRer258UyMEeJ5qjyIrDtKStwzk1YYGqxxhQo0dN0vP/b73zlMb0DfqY4878QIVb22HuIsiGFeiHaLjci+Z6bytO9u/OhvcdIs5JRoRncY5Euh/vQDQd11XQvOEMc9jp5iQmh5b5uNLddVdWvzoETkTMRpm0lYOWOjboII9vl4vW69RpQRNsZelNt47S/7GfrvZB+OgzQhMLreH6hx25+Hsyc9nmYg8tz3xHdnF0nu+Ibz3cHXsDjXAO0JjvEnjV10BFNmHnFPT5wLQF8e1D9kYR/lurOL5941sqDVnUWOyXPRjcyIteuFzthrHPUQLeuxGu7wGb5ttqGfEF+EyHnvmnKvHO0j83K6X86X3QZoydU1Vzv+7S7bvpWcTzTTTM++UEWf3u22XV0vMnd0RN6785j3HxYJGt4VEXmPxLs5gqP7k90ZTkT++w+57177liiI/HdYFt9DKoOIiGXuIeW6R+CrIiCWu0uWfh+wLMoj2uXuA6bd6SyPsohl73Sm3Mstk9KI5e/lJp9jLZWSiFXuVpff2iQQaVaGQZg77VE6YcRlh2JlGITeud2SK0Qc9AooigjlN6gBItWMsgmVxf+AOC3eSlVMqPzKjzhlnOLHIFSusiNq1ImQk1DZy41osgDZhHIjsgE5CGXuqOaV/fgchMjcyDn1Q5O9IZWPUHlJ2YrQfLEfnZNQebAvR/y4oF440ZckVOaGbG64YczZj12CUBkd5Qqm3GOBs12JUGn2ZfLDrQ0pcfgeoTcxyjIYIcc0WIVQWblyDEbD5bMx5QmV0VqGPKq+5h2C5QkV5fz1nlqqh1YgVNrguzbVBbklUMGEirL7YjNCM78CKp5QWYFqJSnvSwVlTEx1QkW5fOUYBqiRl17qIFR6x487qtBaF2XURBOicMMQtWeRj081uAIJgYRK86x9bv43tDO3lyaMUFEOf+ZnGA3z78B+nBoI0XDcfKAdDW1TbQCKIEQOQN+sdXUDGma/7BQvlhC149aqbb0Yutb2rfYTQojG41l7Z0cRnU/Xzm+MP4GESK+TJrohXe1UdX5ISwwh6qw7XRc2IqFhuWfONAxTogiRZhtLBKRXmbq9sX8drwQSogh59qe+Z3eQbVG3s8qzO0lCCZGaq8vRrNaUqPHM4+4mFE8RT+jp8LqPLZ2nUC+Gc3VrfH8JMJ051UHo6XA7d3XTUlmFhohNtUy9e57VQeepLkJfh9V1twa6ZumqX5EJ/bJO9NWv0VR1S9PBendd1QXnq1bCQKP5ava7v9z7p/VxjAjHx/Wpf7/sf2ereamsWTX9AxUG5yAmRjlsAAAAAElFTkSuQmCC;" vertex="1" parent="TernwdUiVpaL5c0x7Tq7-25">
          <mxGeometry x="23.71551724137931" width="22.948275862068964" height="22.948275862068964" as="geometry" />
        </mxCell>
      </root>
    </mxGraphModel>
  </diagram>
</mxfile>
